<svg width="27" height="27" viewBox="0 0 27 27" fill="none" xmlns="http://www.w3.org/2000/svg">
<path d="M26.4374 25.8749H0.562516C0.252017 25.8749 0 26.1269 0 26.4374C0 26.7479 0.252017 26.9999 0.562516 26.9999H26.4375C26.748 26.9999 27 26.7479 27 26.4374C26.9999 26.1269 26.7479 25.8749 26.4374 25.8749Z" fill="#65676B"/>
<path d="M5.06247 19.125H1.68748C1.37698 19.125 1.12496 19.377 1.12496 19.6875V26.4375C1.12496 26.7479 1.37698 26.9999 1.68748 26.9999H5.06247C5.37297 26.9999 5.62499 26.7479 5.62499 26.4374V19.6874C5.62499 19.3769 5.37297 19.125 5.06247 19.125ZM4.49995 25.875H2.24999V20.25H4.50001V25.875H4.49995Z" fill="#65676B"/>
<path d="M11.8125 13.5H8.43746C8.12696 13.5 7.87495 13.752 7.87495 14.0625V26.4375C7.87495 26.748 8.12696 27 8.43746 27H11.8125C12.123 27 12.375 26.748 12.375 26.4375V14.0625C12.375 13.752 12.123 13.5 11.8125 13.5ZM11.2499 25.875H8.99993V14.6249H11.2499V25.875Z" fill="#65676B"/>
<path d="M18.5624 15.75H15.1874C14.8769 15.75 14.6249 16.002 14.6249 16.3125V26.4375C14.6249 26.748 14.8769 27 15.1874 27H18.5624C18.8729 27 19.125 26.748 19.125 26.4375V16.3125C19.125 16.0019 18.8729 15.75 18.5624 15.75ZM17.9999 25.875H15.7499V16.875H17.9999V25.875Z" fill="#65676B"/>
<path d="M25.3124 9H21.9374C21.6269 9 21.3749 9.25202 21.3749 9.56252V26.4375C21.3749 26.748 21.6269 27 21.9374 27H25.3124C25.6229 27 25.8749 26.748 25.8749 26.4375V9.56252C25.8749 9.25196 25.6229 9 25.3124 9ZM24.7499 25.875H22.4999V10.125H24.7499V25.875Z" fill="#65676B"/>
<path d="M3.37497 10.125C2.13408 10.125 1.12496 11.1341 1.12496 12.375C1.12496 13.6159 2.13408 14.625 3.37497 14.625C4.61586 14.625 5.62499 13.6159 5.62499 12.375C5.62499 11.1341 4.61586 10.125 3.37497 10.125ZM3.37497 13.5C2.75398 13.5 2.24999 12.9948 2.24999 12.375C2.24999 11.7551 2.75398 11.25 3.37497 11.25C3.99597 11.25 4.49995 11.7551 4.49995 12.375C4.49995 12.9948 3.99597 13.5 3.37497 13.5Z" fill="#65676B"/>
<path d="M10.125 4.49997C8.88407 4.49997 7.87495 5.50909 7.87495 6.74998C7.87495 7.99087 8.88407 9 10.125 9C11.3658 9 12.375 7.99087 12.375 6.74998C12.375 5.50909 11.3658 4.49997 10.125 4.49997ZM10.125 7.87496C9.50396 7.87496 8.99998 7.36982 8.99998 6.74998C8.99998 6.13009 9.50396 5.625 10.125 5.625C10.746 5.625 11.2499 6.13014 11.2499 6.74998C11.2499 7.36987 10.746 7.87496 10.125 7.87496Z" fill="#65676B"/>
<path d="M16.8749 6.75C15.6341 6.75 14.6249 7.75912 14.6249 9.00001C14.6249 10.2409 15.6341 11.25 16.8749 11.25C18.1158 11.25 19.125 10.2409 19.125 9.00001C19.125 7.75912 18.1158 6.75 16.8749 6.75ZM16.8749 10.125C16.2539 10.125 15.75 9.61985 15.75 9.00001C15.75 8.38012 16.2539 7.87503 16.8749 7.87503C17.4959 7.87503 17.9999 8.38017 17.9999 9.00001C17.9999 9.61985 17.4959 10.125 16.8749 10.125Z" fill="#65676B"/>
<path d="M23.6249 0C22.384 0 21.3749 1.00912 21.3749 2.25001C21.3749 3.4909 22.384 4.50003 23.6249 4.50003C24.8658 4.50003 25.8749 3.4909 25.8749 2.25001C25.8749 1.00912 24.8658 0 23.6249 0ZM23.6249 3.37499C23.0039 3.37499 22.4999 2.86985 22.4999 2.25001C22.4999 1.63012 23.0039 1.12503 23.6249 1.12503C24.2459 1.12503 24.7499 1.63017 24.7499 2.25001C24.7499 2.86985 24.2459 3.37499 23.6249 3.37499Z" fill="#65676B"/>
<path d="M22.8307 3.04423C22.6114 2.82486 22.2547 2.82486 22.0353 3.04423L17.6704 7.4092C17.451 7.62858 17.451 7.98522 17.6704 8.20459C17.7806 8.3137 17.9246 8.36886 18.0686 8.36886C18.2115 8.36886 18.3555 8.31486 18.4657 8.20459L22.8307 3.83962C23.0501 3.62025 23.0501 3.26361 22.8307 3.04423Z" fill="#65676B"/>
<path d="M15.5148 7.70176L11.9013 6.67128C11.5987 6.58353 11.2916 6.75903 11.2072 7.0583C11.1217 7.35756 11.295 7.66806 11.5931 7.75355L15.2066 8.78403C15.2583 8.79864 15.3101 8.80539 15.3607 8.80539C15.606 8.80539 15.8309 8.64449 15.9018 8.39701C15.9873 8.0989 15.8141 7.78724 15.5148 7.70176Z" fill="#65676B"/>
<path d="M9.24751 7.45088C9.05403 7.20788 8.70076 7.16849 8.45776 7.36086L4.2165 10.7426C3.9735 10.9373 3.933 11.2905 4.12765 11.5335C4.23902 11.6729 4.40329 11.745 4.5675 11.745C4.69011 11.745 4.81388 11.7045 4.91739 11.6235L9.15866 8.24174C9.40166 8.0471 9.44216 7.69388 9.24751 7.45088Z" fill="#65676B"/>
</svg>
