<svg width="14" height="14" viewBox="0 0 14 14" fill="none" xmlns="http://www.w3.org/2000/svg">
<g clip-path="url(#clip0_5_370)">
<path d="M7 0C3.13108 0 0 3.13078 0 7C0 10.8689 3.13078 14 7 14C10.8689 14 14 10.8692 14 7C14 3.13105 10.8692 0 7 0ZM7 12.9062C3.73559 12.9062 1.09375 10.2647 1.09375 7C1.09375 3.73557 3.73535 1.09375 7 1.09375C10.2644 1.09375 12.9062 3.73535 12.9062 7C12.9062 10.2644 10.2647 12.9062 7 12.9062Z" fill="#AA0000"/>
<path d="M9.39493 8.62154L7.7734 7L9.39493 5.37846C9.60849 5.16491 9.60851 4.81865 9.39496 4.60507C9.18135 4.39149 8.8351 4.39152 8.62157 4.60507L7.00001 6.22661L5.37845 4.60507C5.16492 4.39149 4.81861 4.39149 4.60506 4.60507C4.3915 4.81865 4.3915 5.16491 4.60509 5.37846L6.22662 7L4.60509 8.62154C4.3915 8.83512 4.39148 9.18138 4.60506 9.39493C4.81869 9.60854 5.16495 9.60846 5.37845 9.39493L7.00001 7.77339L8.62157 9.39493C8.83507 9.60848 9.18138 9.60851 9.39496 9.39493C9.60854 9.18135 9.60851 8.83509 9.39493 8.62154Z" fill="#AA0000"/>
</g>
<defs>
<clipPath id="clip0_5_370">
<rect width="14" height="14" fill="white"/>
</clipPath>
</defs>
</svg>
