<svg width="16" height="16" viewBox="0 0 16 16" fill="none" xmlns="http://www.w3.org/2000/svg">
<path d="M16 5.56139C16 4.63271 15.2445 3.87718 14.3158 3.87718C13.3871 3.87718 12.6316 4.63271 12.6316 5.56139C12.6316 5.80985 12.6861 6.04564 12.7831 6.25815C12.4303 6.4696 12.0243 6.58396 11.6091 6.58396C10.4722 6.58396 9.51945 5.75002 9.35044 4.64859C9.81145 4.26206 10.1053 3.68231 10.1053 3.03507C10.1053 1.87423 9.16084 0.92981 8 0.92981C6.83916 0.92981 5.89474 1.87423 5.89474 3.03507C5.89474 3.68231 6.18855 4.26206 6.64956 4.64855C6.48055 5.75002 5.52779 6.58392 4.39095 6.58392C3.97575 6.58392 3.56968 6.4696 3.21693 6.2581C3.31389 6.04564 3.36842 5.80985 3.36842 5.56139C3.36842 4.63271 2.61288 3.87718 1.68421 3.87718C0.755537 3.87718 0 4.63271 0 5.56139C0 6.35545 0.552547 7.02244 1.29318 7.19928L2.49162 11.3937C2.50556 11.4425 2.52522 11.4885 2.54914 11.5317C2.53474 11.5861 2.52632 11.6429 2.52632 11.7018V14.4035C2.52632 14.7711 2.82543 15.0702 3.19301 15.0702H12.807C13.1746 15.0702 13.4737 14.7711 13.4737 14.4035V11.7018C13.4737 11.6429 13.4653 11.5861 13.4509 11.5317C13.4748 11.4885 13.4944 11.4424 13.5084 11.3936L14.7068 7.19928C15.4475 7.02244 16 6.35545 16 5.56139ZM8 1.77191C8.69651 1.77191 9.26316 2.33857 9.26316 3.03507C9.26316 3.48577 9.02573 3.88181 8.6696 4.10543C8.64888 4.11844 8.62792 4.13099 8.60657 4.14274C8.60455 4.14387 8.60253 4.14505 8.60051 4.14615C8.57768 4.15853 8.55444 4.16994 8.53095 4.18084C8.52455 4.18383 8.51811 4.18669 8.51166 4.18956C8.48973 4.19928 8.46762 4.20855 8.44522 4.21697C8.44265 4.21794 8.44017 4.21903 8.4376 4.22C8.41238 4.22935 8.38678 4.23773 8.36101 4.24539C8.3555 4.24703 8.3499 4.24855 8.3443 4.25015C8.32202 4.25646 8.29962 4.26219 8.27701 4.26724C8.27259 4.26825 8.26817 4.26939 8.26371 4.27031C8.23722 4.27596 8.21053 4.28076 8.18366 4.28471C8.17895 4.28539 8.17415 4.28589 8.16939 4.28653C8.14716 4.28952 8.1248 4.29187 8.10236 4.29373C8.09533 4.29427 8.08829 4.2949 8.08118 4.29533C8.05423 4.29705 8.0272 4.29823 8.00004 4.29823C7.97288 4.29823 7.94585 4.29705 7.91891 4.29533C7.91183 4.29486 7.9048 4.29427 7.89773 4.29373C7.87528 4.29191 7.85293 4.28956 7.8307 4.28653C7.82594 4.28589 7.82114 4.28539 7.81642 4.28471C7.78956 4.28076 7.76286 4.27596 7.73638 4.27031C7.73192 4.26935 7.72754 4.26825 7.72307 4.26724C7.70046 4.26215 7.67806 4.25646 7.65579 4.25015C7.65023 4.24859 7.64463 4.24703 7.63907 4.24539C7.61331 4.23768 7.58771 4.22935 7.56248 4.22C7.55992 4.21903 7.55743 4.21794 7.55486 4.21697C7.53246 4.2085 7.51036 4.19928 7.48842 4.18956C7.48198 4.18669 7.47554 4.18379 7.46914 4.18084C7.44568 4.16994 7.42244 4.15853 7.39958 4.14615C7.39752 4.14505 7.39554 4.14383 7.39352 4.14274C7.37217 4.13099 7.3512 4.11844 7.33048 4.10543C6.97427 3.88181 6.73684 3.48577 6.73684 3.03507C6.73684 2.33857 7.30349 1.77191 8 1.77191ZM1.68421 4.71928C2.14855 4.71928 2.52632 5.09705 2.52632 5.56139C2.52632 5.79301 2.43229 6.00303 2.28046 6.15541C2.27979 6.15608 2.27916 6.15672 2.27853 6.15739C2.25987 6.17596 2.24042 6.19368 2.22013 6.21048C2.21971 6.21086 2.21924 6.2112 2.21878 6.21158C2.15785 6.26177 2.08968 6.30341 2.01625 6.33503C2.01368 6.33613 2.01112 6.33731 2.00855 6.3384C1.98627 6.34775 1.96345 6.35604 1.94021 6.36345C1.93621 6.36472 1.93221 6.36598 1.92821 6.3672C1.90539 6.3741 1.88219 6.38017 1.85857 6.38514C1.85453 6.38598 1.8504 6.38674 1.84636 6.38754C1.82215 6.39229 1.79768 6.39617 1.7728 6.39878C1.77006 6.39907 1.76728 6.3992 1.76455 6.39945C1.73811 6.40198 1.71133 6.40354 1.68425 6.40354C1.21992 6.40354 0.842147 6.02577 0.842147 5.56143C0.842147 5.09709 1.21987 4.71928 1.68421 4.71928ZM12.6316 14.2281H3.36842V11.8772H12.6316V14.2281ZM12.735 11.0351H3.26497L2.16248 7.17651C2.16737 7.17507 2.17217 7.17335 2.17705 7.17187C2.184 7.16973 2.19091 7.16745 2.19785 7.16522C2.21701 7.15907 2.23604 7.15267 2.25495 7.14585C2.26038 7.14387 2.26577 7.14189 2.27116 7.13987C2.29229 7.132 2.31331 7.1237 2.33411 7.11499C2.33693 7.11381 2.33979 7.11263 2.34261 7.11141C2.46282 7.06034 2.57709 6.99562 2.68282 6.91764C3.18834 7.24745 3.78265 7.42598 4.39095 7.42598C5.84762 7.42598 7.08354 6.42539 7.42497 5.06034C7.43453 5.06307 7.44425 5.06539 7.45385 5.068C7.4648 5.07095 7.47575 5.07394 7.48678 5.07671C7.51158 5.08295 7.53655 5.08876 7.5616 5.09402C7.5792 5.09777 7.59697 5.10101 7.6147 5.10429C7.62581 5.10631 7.63688 5.10838 7.648 5.11027C7.66792 5.11364 7.68787 5.11676 7.70796 5.11958C7.70989 5.11983 7.71179 5.12004 7.71373 5.12029C7.80741 5.13309 7.90286 5.14029 8 5.14029C8.09714 5.14029 8.19259 5.13309 8.28627 5.12029C8.28821 5.12004 8.29011 5.11983 8.29204 5.11958C8.31213 5.11676 8.33208 5.11364 8.352 5.11027C8.36316 5.10842 8.37423 5.10636 8.38531 5.10429C8.40307 5.10101 8.42084 5.09777 8.4384 5.09402C8.46345 5.08872 8.48842 5.0829 8.51322 5.07671C8.52425 5.07394 8.53516 5.07095 8.54615 5.068C8.55575 5.06543 8.56543 5.06307 8.57503 5.06034C8.91642 6.42539 10.1524 7.42598 11.6091 7.42598C12.2173 7.42598 12.8117 7.24745 13.3172 6.91764C13.4229 6.99562 13.5372 7.06034 13.6574 7.11141C13.6602 7.11263 13.6631 7.11377 13.6659 7.11499C13.6867 7.1237 13.7077 7.132 13.7288 7.13987C13.7342 7.14189 13.7396 7.14387 13.7451 7.14585C13.764 7.15267 13.783 7.15907 13.8021 7.16522C13.8091 7.16745 13.816 7.16973 13.8229 7.17187C13.8278 7.17335 13.8326 7.17507 13.8375 7.17651L12.735 11.0351ZM14.3158 6.40349C14.2887 6.40349 14.2619 6.40194 14.2355 6.39941C14.2328 6.39916 14.23 6.39903 14.2272 6.39874C14.2024 6.39613 14.1779 6.39221 14.1537 6.38749C14.1496 6.38669 14.1455 6.38598 14.1415 6.38509C14.1179 6.38013 14.0947 6.37406 14.0718 6.36716C14.0678 6.36594 14.0638 6.36472 14.0598 6.36341C14.0366 6.356 14.0138 6.3477 13.9915 6.33836C13.9889 6.33726 13.9864 6.33612 13.9838 6.33499C13.9104 6.30333 13.8422 6.26173 13.7813 6.21154C13.7808 6.21116 13.7804 6.21082 13.78 6.21044C13.7597 6.19364 13.7402 6.17592 13.7216 6.15735C13.7209 6.15667 13.7203 6.15604 13.7196 6.15537C13.5678 6.00299 13.4738 5.79297 13.4738 5.56135C13.4738 5.09701 13.8515 4.71924 14.3159 4.71924C14.7802 4.71924 15.158 5.09701 15.158 5.56135C15.158 6.02568 14.7801 6.40349 14.3158 6.40349Z" fill="black"/>
</svg>
