<svg width="16" height="16" viewBox="0 0 16 16" fill="none" xmlns="http://www.w3.org/2000/svg">
<path d="M0.430443 7.07453C0.181373 7.07453 0 7.51096 0 7.26556V1.97273C0 1.00982 0.795126 0.226497 1.77241 0.226497C2.49858 0.226497 3.12381 0.659058 3.39741 1.27636C3.84469 1.23898 4.44125 1.41105 5.0847 0.941113C5.90333 0.343004 6.92636 0 7.89133 0L13.6803 5.91979e-05C15.0946 5.91979e-05 15.8293 1.63156 14.9093 2.67591C15.6263 3.22824 15.7459 4.23545 15.1993 4.93182C15.204 4.93775 16.1226 5.47562 15.917 6.57298C15.8553 6.90758 15.6913 7.20219 15.4604 7.42786C16.5652 8.41108 15.861 10.2308 14.3669 10.2308H11.325C12.3875 12.145 12.3171 14.08 12.3046 14.3068C12.2096 16.0391 10.1756 16.6592 9.32924 15.13C9.10223 14.7198 9.02732 14.233 8.95494 13.77C8.79671 13.1297 8.31462 11.9773 6.85765 11.2962C6.33504 11.1305 5.81279 10.8614 5.34531 10.5168C5.00853 10.2684 4.73216 9.93313 4.54604 9.54724C4.23775 8.90779 3.51939 9.07156 3.40114 9.04828C3.12947 9.66979 2.50177 10.1061 1.77241 10.1061C0.795066 10.1061 0 9.3227 0 8.35985V7.26556C0 7.02017 0.181373 7.07453 0.430443 7.07453C0.679514 7.07453 0.901776 7.02017 0.901776 7.26556V8.35985C0.901776 8.83274 1.2923 9.21756 1.77235 9.21756C2.25811 9.21756 2.64299 8.82498 2.64299 8.35985C2.6413 1.55705 2.64695 1.97089 2.6386 1.88791C2.59555 1.46116 2.22829 1.11495 1.77229 1.11495C1.29231 1.11495 0.901715 1.49972 0.901715 1.97267L0.901776 7.26556C0.901896 7.51096 0.679574 7.07453 0.430443 7.07453ZM3.54494 8.15971H3.74484C4.43175 8.15971 5.06594 8.55466 5.36064 9.16585C5.48412 9.42191 5.66568 9.64307 5.88572 9.80531C6.56265 10.3045 7.13317 10.4423 7.21343 10.4791C9.04716 11.3227 9.64384 12.7846 9.8364 13.581C9.86646 13.7049 9.92405 14.3488 10.121 14.7046C10.5359 15.4544 11.3591 15.0796 11.404 14.2588C11.4157 14.046 11.4851 12.1284 10.341 10.3333C10.068 9.90481 10.3798 9.34212 10.8982 9.34212H14.3668C14.77 9.34212 15.0981 9.01896 15.0981 8.6217C15.0981 8.22445 14.7701 7.90122 14.3668 7.90122C13.3648 7.89921 14.6396 7.89506 13.9044 7.89506C13.6553 7.89506 13.4535 7.69623 13.4535 7.45084C13.4535 7.20544 13.6553 7.00661 13.9044 7.00661H14.3077C14.632 7.00661 14.9488 6.79735 15.0306 6.40856C15.0771 6.14812 14.9572 5.95929 14.9387 5.91292L14.8636 5.81069L14.7922 5.73973C14.754 5.70709 14.6598 5.64739 14.6658 5.65141C14.5255 5.59811 14.4596 5.55955 14.3078 5.55955H13.9045C13.6555 5.55955 13.4536 5.36071 13.4536 5.11532C13.4536 4.86999 13.6554 4.67109 13.9044 4.67109C14.6917 4.67097 14.9268 3.59701 14.1985 3.28451C14.0048 3.20129 13.8764 3.22984 13.6804 3.22403C13.4314 3.22403 13.2295 3.0252 13.2295 2.7798C13.2295 2.53791 13.4258 2.3412 13.6699 2.33569C13.7526 2.33409 13.7091 2.33415 13.7592 2.33137C13.7652 2.33019 13.8973 2.30412 13.8889 2.30578L13.9263 2.29382L14.1074 2.20041C14.1135 2.19532 14.2082 2.11589 14.2021 2.12098L14.2932 2.01052C14.2961 2.00406 14.4426 1.80369 14.4094 1.5272C14.3543 1.13503 14.0325 0.888634 13.6803 0.888634L7.89133 0.888575C7.12704 0.888575 6.27865 1.17501 5.62185 1.65496C4.71046 2.32065 3.84463 2.13236 3.54494 2.16499L3.54494 8.15971Z" fill="black"/>
</svg>
