<svg width="18" height="15" viewBox="0 0 18 15" fill="none" xmlns="http://www.w3.org/2000/svg">
<path d="M17.5932 13.6874L17.6636 12.6109C17.7118 11.8934 17.7596 11.1796 17.8078 10.4621C17.8193 10.2957 17.8142 10.079 17.6638 9.89412C17.6247 9.84494 17.5746 9.7945 17.5158 9.75427C17.4297 9.69228 17.3402 9.65973 17.2519 9.64967C17.0386 9.62536 16.8828 9.74923 16.7722 9.83725L16.514 10.0426C16.305 10.2089 16.1001 10.3719 15.8911 10.5381C15.8706 10.5544 15.8505 10.567 15.83 10.5833L12.6321 6.563C12.4724 6.36219 12.2445 6.23561 11.9944 6.20711C11.7442 6.1786 11.4901 6.25027 11.2929 6.41042L8.6086 8.54563L2.73067 1.16026C2.57094 0.959445 2.3468 0.833285 2.09294 0.804362C1.83909 0.775439 1.58864 0.847526 1.38783 1.00726L1.18701 1.16699C0.773096 1.49624 0.704771 2.09592 1.03402 2.50984L7.6613 10.8415C7.82103 11.0423 8.04517 11.1684 8.29902 11.1974C8.55288 11.2263 8.80333 11.1542 9.00414 10.9945L11.6885 8.85927L14.1333 11.9329C13.9166 12.102 13.7035 12.2715 13.4899 12.4447L13.1826 12.6892C13.0596 12.787 12.8055 12.9891 12.9313 13.3575C12.9564 13.4312 12.9902 13.4946 13.0326 13.5479C13.1727 13.7241 13.3738 13.7582 13.5169 13.7782C14.6074 13.9547 15.7015 14.1315 16.792 14.3079C16.8104 14.31 16.8325 14.3125 16.8545 14.315C17.0716 14.3398 17.2476 14.3002 17.3754 14.1918C17.507 14.0838 17.5782 13.9167 17.5932 13.6874Z" fill="black"/>
</svg>
