<svg width="47" height="46" viewBox="0 0 47 46" fill="none" xmlns="http://www.w3.org/2000/svg">
<mask id="mask0_10_1377" style="mask-type:alpha" maskUnits="userSpaceOnUse" x="0" y="0" width="47" height="46">
<rect width="47" height="46" rx="5" fill="#C4C4C4"/>
</mask>
<g mask="url(#mask0_10_1377)">
<path d="M12.6094 21.5C12.6094 19.4686 13.169 17.5657 14.1414 15.9364V9.02499H7.22997C4.48689 12.5875 3 16.9293 3 21.5C3 26.0707 4.48689 30.4124 7.22997 33.9749H14.1414V27.0635C13.169 25.4342 12.6094 23.5313 12.6094 21.5Z" fill="#FBBD00"/>
<path d="M23.5 32.3906L18.6953 37.1953L23.5 42C28.0708 42 32.4124 40.5131 35.975 37.77V30.866H29.071C27.4273 31.8419 25.5164 32.3906 23.5 32.3906Z" fill="#0F9D58"/>
<path d="M14.1417 27.0636L7.23029 33.975C7.77338 34.6803 8.36475 35.3558 9.00466 35.9957C12.8766 39.8676 18.0246 42 23.5003 42V32.3906C19.5265 32.3906 16.0437 30.2509 14.1417 27.0636Z" fill="#31AA52"/>
<path d="M44 21.5C44 20.2527 43.8871 19.0032 43.6643 17.7862L43.4841 16.8013H23.5V26.4107H33.2256C32.2812 28.2894 30.8291 29.8222 29.0709 30.8661L35.9749 37.7701C36.6802 37.227 37.3557 36.6356 37.9957 35.9957C41.8676 32.1237 44 26.9757 44 21.5Z" fill="#3C79E6"/>
<path d="M31.2009 13.7991L32.0502 14.6484L38.8451 7.85364L37.9957 7.00434C34.1238 3.1324 28.9758 1 23.5 1L18.6953 5.80469L23.5 10.6094C26.4089 10.6094 29.1438 11.7422 31.2009 13.7991Z" fill="#CF2D48"/>
<path d="M23.5003 10.6094V1C18.0245 1 12.8766 3.1324 9.00454 7.00426C8.36463 7.64416 7.77325 8.31962 7.23016 9.02503L14.1416 15.9364C16.0437 12.7491 19.5265 10.6094 23.5003 10.6094Z" fill="#EB4132"/>
</g>
</svg>
