<svg width="29" height="27" viewBox="0 0 29 27" fill="none" xmlns="http://www.w3.org/2000/svg">
<path d="M18.5242 25.2359H22.9345C23.0944 25.2359 23.2285 25.1007 23.2285 24.9419V13.4753C23.2285 12.8261 23.7565 12.2992 24.4045 12.2992H26.5567L14.428 1.79349L2.26167 12.2992H4.41151C5.0607 12.2992 5.58757 12.8261 5.58757 13.4753V24.9419C5.58757 25.1007 5.72282 25.2359 5.88159 25.2359H10.2918V17.8855C10.2918 17.0752 10.9516 16.4155 11.7619 16.4155H17.0542C17.8645 16.4155 18.5242 17.0752 18.5242 17.8855V25.2359ZM22.9345 27H17.9362C17.287 27 16.7601 26.4731 16.7601 25.8239V18.5888C16.7601 18.363 16.5767 18.1795 16.3509 18.1795H12.4652C12.2394 18.1795 12.0559 18.363 12.0559 18.5888V25.8239C12.0559 26.4731 11.529 27 10.8798 27H5.88159C4.74551 27 3.82348 26.078 3.82348 24.9419V14.0633H1.55251C0.962126 14.0633 0.388209 13.7529 0.14006 13.2166C-0.139842 12.6121 0.00951716 11.9217 0.50111 11.4889L13.2331 0.45984C13.5236 0.181113 13.947 0.00705636 14.3951 0C14.869 0.00705636 15.2936 0.181114 15.6158 0.489241L28.3102 11.4842C28.3126 11.4866 28.3138 11.4878 28.3149 11.4889C28.8077 11.9217 28.9571 12.6121 28.6772 13.2166C28.4278 13.7529 27.8551 14.0633 27.2635 14.0633H24.9926V24.9419C24.9926 26.078 24.0717 27 22.9345 27Z" fill="#1877F2"/>
</svg>
