<svg width="16" height="15" viewBox="0 0 16 15" fill="none" xmlns="http://www.w3.org/2000/svg">
<path d="M7.95625 14.9736H7.94517C5.90029 14.9356 0 9.6045 0 4.55525C0 2.12958 1.99896 0 4.27738 0C6.09029 0 7.30946 1.25083 7.95546 2.16125C8.59987 1.25242 9.81904 0 11.6327 0C13.9127 0 15.9109 2.12958 15.9109 4.55604C15.9109 9.60371 10.0098 14.9348 7.96496 14.972H7.95625V14.9736ZM4.27817 1.18829C2.6315 1.18829 1.18829 2.76212 1.18829 4.55683C1.18829 9.101 6.75688 13.737 7.95704 13.7861C9.15879 13.737 14.7258 9.10179 14.7258 4.55683C14.7258 2.76212 13.2826 1.18829 11.6359 1.18829C9.63458 1.18829 8.51675 3.51262 8.50725 3.53558C8.32517 3.9805 7.59208 3.9805 7.40921 3.53558C7.39813 3.51183 6.28029 1.18829 4.27817 1.18829Z" fill="black"/>
</svg>
