<svg width="30" height="26" viewBox="0 0 30 26" fill="none" xmlns="http://www.w3.org/2000/svg">
<path d="M23.0142 15.1723V3.31033C23.0142 1.48503 21.75 0 20.1961 0H2.81806C1.2642 0 0 1.48503 0 3.31033V15.1723C0 16.9976 1.2642 18.4827 2.81806 18.4827H5.34757L5.40152 21.4715C5.41767 22.3695 6.2955 22.8702 6.90614 22.3293L11.2497 18.4827H20.1961C21.75 18.4827 23.0142 16.9976 23.0142 15.1723ZM10.9353 16.2758C10.7312 16.2758 10.5328 16.3538 10.3698 16.4981L7.2409 19.2691L7.20638 17.3559C7.19552 16.7558 6.77827 16.2758 6.26726 16.2758H2.81806C2.30013 16.2758 1.87871 15.7808 1.87871 15.1724V3.3104C1.87871 2.70199 2.30013 2.20695 2.81806 2.20695H20.1961C20.7141 2.20695 21.1355 2.70199 21.1355 3.3104V15.1724C21.1355 15.7808 20.7141 16.2758 20.1961 16.2758L10.9353 16.2758ZM29.12 10.2068V19.3102C29.12 21.1356 27.8559 22.6206 26.3019 22.6206H23.7684L23.7184 24.9246C23.7054 25.5241 23.2871 25.9999 22.7794 25.9999C22.4046 25.9999 22.6133 26.0762 17.915 22.6206H13.6206C13.1018 22.6206 12.6813 22.1266 12.6813 21.5171C12.6813 20.9077 13.1018 20.4137 13.6206 20.4137C18.6031 20.4137 18.3703 20.3518 18.6832 20.5818L21.8823 22.9347L21.9136 21.4889C21.9267 20.8906 22.3432 20.4136 22.8527 20.4136H26.3019C26.8199 20.4136 27.2413 19.9186 27.2413 19.3102V10.2068C27.2413 9.59836 26.8199 9.10333 26.3019 9.10333C25.7831 9.10333 25.3626 8.60933 25.3626 7.99989C25.3626 7.39044 25.7831 6.89645 26.3019 6.89645C27.8559 6.89652 29.12 8.38147 29.12 10.2068ZM17.3781 7.24134C17.3781 7.85079 16.9575 8.34478 16.4387 8.34478H6.57548C6.05667 8.34478 5.63613 7.85079 5.63613 7.24134C5.63613 6.6319 6.05667 6.1379 6.57548 6.1379H16.4387C16.9575 6.1379 17.3781 6.6319 17.3781 7.24134ZM15.6755 12.0689C15.6755 12.6783 15.2549 13.1723 14.7361 13.1723H8.27806C7.75925 13.1723 7.33871 12.6783 7.33871 12.0689C7.33871 11.4595 7.75925 10.9655 8.27806 10.9655H14.7361C15.2549 10.9655 15.6755 11.4595 15.6755 12.0689Z" fill="#65676B"/>
</svg>
