<svg width="13" height="4" viewBox="0 0 13 4" fill="none" xmlns="http://www.w3.org/2000/svg">
<path d="M8.125 1.625C8.125 2.5225 7.3975 3.25 6.5 3.25C5.6025 3.25 4.875 2.5225 4.875 1.625C4.875 0.727501 5.6025 0 6.5 0C7.3975 0 8.125 0.727501 8.125 1.625Z" fill="#65676B"/>
<path d="M3.25 1.625C3.25 2.5225 2.5225 3.25 1.625 3.25C0.727501 3.25 0 2.5225 0 1.625C0 0.727501 0.727501 0 1.625 0C2.5225 0 3.25 0.727501 3.25 1.625Z" fill="#65676B"/>
<path d="M13 1.625C13 2.5225 12.2725 3.25 11.375 3.25C10.4775 3.25 9.75 2.5225 9.75 1.625C9.75 0.727501 10.4775 0 11.375 0C12.2725 0 13 0.727501 13 1.625Z" fill="#65676B"/>
</svg>
