<svg width="28" height="28" viewBox="0 0 28 28" fill="none" xmlns="http://www.w3.org/2000/svg">
<path d="M23.8995 4.10049C21.2553 1.45627 17.7395 0 14 0C10.2605 0 6.74472 1.45627 4.10049 4.10049C1.45627 6.74472 0 10.2605 0 14C0 17.7395 1.45627 21.2553 4.10049 23.8995C6.74472 26.5437 10.2605 28 14 28C17.7395 28 21.2553 26.5437 23.8995 23.8995C26.5437 21.2553 28 17.7395 28 14C28 10.2605 26.5437 6.74472 23.8995 4.10049ZM24.6617 7.73999C25.6839 9.47418 26.2654 11.4374 26.3483 13.4897H21.5426C21.5116 11.8381 21.3305 10.2351 21.0115 8.74081C22.3127 8.47827 23.5408 8.14267 24.6617 7.73999ZM22.7393 5.26068C23.0824 5.60355 23.402 5.9635 23.6989 6.33777C22.7391 6.65991 21.7007 6.93164 20.6067 7.14932C20.3023 6.12543 19.928 5.1701 19.4878 4.3075C19.119 3.58502 18.714 2.94778 18.2795 2.39899C19.9357 3.00909 21.4544 3.97552 22.7393 5.26068ZM14.8203 1.77136C15.9925 2.14264 17.1281 3.29343 18.0266 5.05347C18.3953 5.77615 18.7136 6.57339 18.9781 7.42767C17.6406 7.62036 16.2422 7.73636 14.8203 7.77032V1.77136ZM13.1797 1.77136V7.77289C11.7572 7.74319 10.3575 7.63104 9.01724 7.44241C9.28278 6.58237 9.60257 5.78021 9.97342 5.05347C10.8719 3.29343 12.0075 2.14264 13.1797 1.77136ZM5.26068 5.26068C6.54584 3.97552 8.06448 3.00909 9.72049 2.3992C9.28598 2.94778 8.88095 3.58502 8.51224 4.30771C8.06897 5.17587 7.69257 6.13782 7.3873 7.1694C6.28821 6.95471 5.24402 6.68597 4.27823 6.36618C4.58157 5.98166 4.90906 5.6123 5.26068 5.26068ZM3.3197 7.77161C4.44614 8.17065 5.67917 8.50241 6.98419 8.76111C6.6676 10.2496 6.48816 11.8456 6.4574 13.4897H1.65173C1.73398 11.4498 2.30905 9.49811 3.3197 7.77161ZM3.44424 20.4362C2.46265 18.8332 1.86301 17.0268 1.69211 15.1303H6.4762C6.539 16.631 6.72656 18.0843 7.02927 19.4446C5.75052 19.705 4.54376 20.0374 3.44424 20.4362ZM5.26068 22.7393C4.96866 22.4473 4.69287 22.1433 4.43417 21.8282C5.36942 21.5131 6.38135 21.2467 7.44797 21.0329C7.74191 21.9882 8.09802 22.8812 8.51224 23.6923C8.88095 24.415 9.28598 25.0522 9.72049 25.6008C8.06427 24.9909 6.54562 24.0245 5.26068 22.7393ZM13.1797 26.2286C12.0075 25.8574 10.8719 24.7064 9.97342 22.9465C9.63077 22.2751 9.3317 21.5396 9.07877 20.7533C10.3977 20.5636 11.777 20.4497 13.1797 20.4177V26.2286ZM8.6449 19.1599C8.28323 17.5607 8.09268 15.8111 8.09268 14C8.09268 12.2637 8.26807 10.5842 8.60132 9.03925C10.315 9.29047 12.1203 9.42163 13.9462 9.42163C15.8094 9.42163 17.6506 9.28491 19.3953 9.02386C19.7309 10.5731 19.9073 12.2579 19.9073 14C19.9073 15.8111 19.717 17.5607 19.3551 19.1596C17.6408 18.9022 15.8312 18.7672 14 18.7672C12.1688 18.7672 10.3592 18.9022 8.6449 19.1599ZM14.8203 26.2286V20.4177C16.223 20.4497 17.6021 20.5636 18.9212 20.7535C18.6683 21.5396 18.3692 22.2751 18.0266 22.9465C17.1281 24.7066 15.9925 25.8574 14.8203 26.2286ZM22.7393 22.7393C21.4542 24.0245 19.9357 24.9909 18.2795 25.6008C18.714 25.0522 19.119 24.415 19.4878 23.6923C19.902 22.8812 20.2581 21.9882 20.552 21.0329C21.6187 21.2467 22.6306 21.5131 23.5658 21.8282C23.3071 22.1433 23.0313 22.4473 22.7393 22.7393ZM24.5558 20.4362C23.4562 20.0374 22.2495 19.705 20.9707 19.4446C21.2734 18.0843 21.461 16.631 21.5238 15.1303H26.3079C26.137 17.0268 25.5374 18.8332 24.5558 20.4362Z" fill="#65676B"/>
<path d="M16.835 10.5541C16.3819 10.5541 16.0147 10.9213 16.0147 11.3744V14.9927L11.7403 10.7895C11.5045 10.5577 11.1528 10.4902 10.848 10.6177C10.5432 10.7455 10.3447 11.0439 10.3447 11.3744V16.9497C10.3447 17.4028 10.7121 17.77 11.165 17.77C11.6181 17.77 11.9853 17.4028 11.9853 16.9497V13.3314L16.2599 17.5346C16.4163 17.6886 16.6239 17.77 16.8352 17.77C16.942 17.77 17.0497 17.7493 17.1522 17.7064C17.4571 17.5786 17.6553 17.2802 17.6553 16.9497V11.3744C17.6553 10.9213 17.2881 10.5541 16.835 10.5541Z" fill="#65676B"/>
</svg>
