<svg width="28" height="32" viewBox="0 0 28 32" fill="none" xmlns="http://www.w3.org/2000/svg">
<path d="M11.4684 30.0131C11.4684 30.687 10.9223 31.2332 10.2484 31.2332H4.88018C2.18917 31.2332 0 29.044 0 26.353V4.88018C0 2.18917 2.18917 0 4.88018 0H19.8801C22.5709 0 24.7603 2.18917 24.7603 4.88018V16.5316C24.7603 17.2055 24.2139 17.7517 23.5402 17.7517C22.8663 17.7517 22.3202 17.2055 22.3202 16.5316V4.88018C22.3202 3.5348 21.2255 2.44009 19.8801 2.44009H4.88018C3.5348 2.44009 2.44009 3.5348 2.44009 4.88018V26.353C2.44009 27.6984 3.5348 28.7931 4.88018 28.7931H10.2484C10.9223 28.7931 11.4684 29.3392 11.4684 30.0131ZM18.66 7.32028H6.09356C5.41967 7.32028 4.87351 7.86644 4.87351 8.54032C4.87351 9.21421 5.41967 9.76037 6.09356 9.76037H18.66C19.3337 9.76037 19.8801 9.21421 19.8801 8.54032C19.8801 7.86644 19.3337 7.32028 18.66 7.32028ZM19.8801 13.4205C19.8801 12.7466 19.3337 12.2005 18.66 12.2005H6.09356C5.41967 12.2005 4.87351 12.7466 4.87351 13.4205C4.87351 14.0944 5.41967 14.6406 6.09356 14.6406H18.66C19.3337 14.6406 19.8801 14.0944 19.8801 13.4205ZM6.09356 17.0806C5.41967 17.0806 4.87351 17.6268 4.87351 18.3007C4.87351 18.9746 5.41967 19.5207 6.09356 19.5207H12.5055C13.1794 19.5207 13.7255 18.9746 13.7255 18.3007C13.7255 17.6268 13.1794 17.0806 12.5055 17.0806H6.09356ZM27.7782 26.0172C27.7353 26.0785 27.5883 26.2865 27.497 26.4016C27.0884 26.9156 26.1319 28.1187 24.801 29.1808C23.0946 30.5426 21.3387 31.2332 19.5817 31.2332C17.8248 31.2332 16.0689 30.5426 14.3625 29.1808C13.0316 28.1187 12.0751 26.9154 11.6667 26.4016C11.5752 26.2865 11.4282 26.0782 11.3853 26.0172C11.0896 25.5964 11.0896 25.0353 11.3853 24.6144C11.4282 24.5534 11.5752 24.3452 11.6667 24.2301C12.0751 23.7163 13.0316 22.5132 14.3625 21.4511C16.0689 20.0893 17.8248 19.3987 19.5817 19.3987C21.3387 19.3987 23.0946 20.0893 24.801 21.4511C26.1319 22.5132 27.0884 23.7166 27.4968 24.2303C27.5883 24.3454 27.7353 24.5537 27.7782 24.6147C28.0739 25.0355 28.0739 25.5964 27.7782 26.0172ZM25.2333 25.316C23.2934 23.0081 21.3939 21.8388 19.5817 21.8388C17.7698 21.8388 15.8701 23.0079 13.9302 25.316C15.8701 27.6238 17.7695 28.7931 19.5817 28.7931C21.3939 28.7931 23.2934 27.624 25.2333 25.316ZM19.6427 22.9979C18.3624 22.9979 17.3247 24.0356 17.3247 25.316C17.3247 26.5963 18.3624 27.634 19.6427 27.634C20.9231 27.634 21.9608 26.5963 21.9608 25.316C21.9608 24.0356 20.9231 22.9979 19.6427 22.9979Z" fill="#65676B"/>
</svg>
