<svg width="14" height="16" viewBox="0 0 14 16" fill="none" xmlns="http://www.w3.org/2000/svg">
<path d="M5.33333 3.04762H11.4286C12.6933 3.04762 13.7143 4.06857 13.7143 5.33333V13.7143C13.7143 14.979 12.6933 16 11.4286 16H5.33333C4.06857 16 3.04762 14.979 3.04762 13.7143V12.9524H3.80952V13.7143C3.80952 14.5524 4.49524 15.2381 5.33333 15.2381H11.4286C12.2667 15.2381 12.9524 14.5524 12.9524 13.7143V5.33333C12.9524 4.49524 12.2667 3.80952 11.4286 3.80952H5.33333C4.49524 3.80952 3.80952 4.49524 3.80952 5.33333V9.14286H3.04762V5.33333C3.04762 4.06857 4.06857 3.04762 5.33333 3.04762ZM2.28571 0H9.90476V0.761905H2.28571C1.44762 0.761905 0.761905 1.44762 0.761905 2.28571V9.14286C0.761905 9.98095 1.44762 10.6667 2.28571 10.6667H7.80952L6.09524 8.95238L6.5981 8.38095L9.26476 11.0476L6.5981 13.7143L6.09524 13.1429L7.80952 11.4286H2.28571C1.02095 11.4286 0 10.4076 0 9.14286V2.28571C0 1.02095 1.02095 0 2.28571 0Z" fill="black"/>
</svg>
