<svg width="21" height="21" viewBox="0 0 21 21" fill="none" xmlns="http://www.w3.org/2000/svg">
<path d="M0.264688 19.5084L6.28989 13.4788C5.10207 12.0543 4.38765 10.2338 4.38765 8.24553C4.38765 3.70941 8.11037 0.0211182 12.6895 0.0211182C17.2687 0.0211182 21 3.71371 21 8.24983C21 12.7859 17.2773 16.4742 12.6981 16.4742C10.7528 16.4742 8.9625 15.8072 7.54227 14.6925L1.49555 20.7392C1.14265 21.0921 0.617594 21.0921 0.264688 20.7392C-0.0882149 20.3863 -0.0882149 19.8613 0.264688 19.5084ZM19.2355 8.24983C19.2355 4.68635 16.3003 1.78995 12.6981 1.78995C9.09592 1.78995 6.16078 4.68635 6.16078 8.24983C6.16078 11.8133 9.09592 14.7097 12.6981 14.7097C16.3003 14.7097 19.2355 11.809 19.2355 8.24983Z" fill="#65676B"/>
</svg>
