<svg width="62" height="62" viewBox="0 0 62 62" fill="none" xmlns="http://www.w3.org/2000/svg">
<path d="M14.5313 31C14.5313 27.9282 15.3776 25.0507 16.8479 22.5868V12.1354H6.39654C2.24847 17.5226 0 24.0882 0 31C0 37.9118 2.24847 44.4774 6.39654 49.8646H16.8479V39.4132C15.3776 36.9493 14.5313 34.0718 14.5313 31Z" fill="#FBBD00"/>
<path d="M31 47.4687L23.7344 54.7344L31 62C37.9119 62 44.4774 59.7515 49.8646 55.6035V45.1632H39.4244C36.9389 46.6389 34.0493 47.4687 31 47.4687Z" fill="#0F9D58"/>
<path d="M16.8479 39.4132L6.39655 49.8646C7.2178 50.9312 8.11208 51.9526 9.07974 52.9204C14.9349 58.7754 22.7196 62 31 62V47.4688C24.9909 47.4688 19.7241 44.2331 16.8479 39.4132Z" fill="#31AA52"/>
<path d="M62 31C62 29.114 61.8293 27.2244 61.4924 25.384L61.2198 23.8947H31V38.426H45.7071C44.2789 41.2669 42.083 43.5848 39.4242 45.1634L49.8645 55.6036C50.9311 54.7823 51.9525 53.8881 52.9203 52.9204C58.7754 47.0652 62 39.2804 62 31Z" fill="#3C79E6"/>
<path d="M42.6452 19.3548L43.9295 20.6391L54.2047 10.3641L52.9204 9.07973C47.0653 3.22461 39.2805 0 31 0L23.7344 7.26562L31 14.5312C35.3989 14.5312 39.5346 16.2442 42.6452 19.3548Z" fill="#CF2D48"/>
<path d="M31 14.5312V0C22.7196 0 14.9349 3.22461 9.07962 9.07961C8.11196 10.0473 7.21768 11.0687 6.39642 12.1354L16.8478 22.5868C19.7241 17.7669 24.9909 14.5312 31 14.5312Z" fill="#EB4132"/>
</svg>
