<svg width="18" height="18" viewBox="0 0 18 18" fill="none" xmlns="http://www.w3.org/2000/svg">
<g clip-path="url(#clip0_8_859)">
<path d="M8.99999 3.13547C5.76617 3.13547 3.13547 5.76617 3.13547 8.99999C3.13547 12.2336 5.76617 14.8645 8.99999 14.8645C12.2336 14.8645 14.8645 12.2336 14.8645 8.99999C14.8645 5.76617 12.2336 3.13547 8.99999 3.13547ZM8.99999 13.7032C6.40662 13.7032 4.29675 11.5934 4.29675 8.99999C4.29675 6.40662 6.40662 4.29675 8.99999 4.29675C11.5934 4.29675 13.7032 6.40662 13.7032 8.99999C13.7032 11.5935 11.5934 13.7032 8.99999 13.7032Z" fill="black"/>
<path d="M8.99999 0C8.67929 0 8.41934 0.259945 8.41934 0.580641V6.34838C8.41934 6.66907 8.67929 6.92902 8.99999 6.92902C9.32069 6.92902 9.58064 6.66907 9.58064 6.34838V0.580641C9.58064 0.259945 9.32069 0 8.99999 0Z" fill="black"/>
<path d="M8.99999 11.071C8.67929 11.071 8.41934 11.3309 8.41934 11.6516V17.4194C8.41934 17.7401 8.67929 18 8.99999 18C9.32069 18 9.58064 17.7401 9.58064 17.4194V11.6516C9.58064 11.3309 9.32069 11.071 8.99999 11.071Z" fill="black"/>
<path d="M17.4194 8.41937H11.6516C11.3309 8.41937 11.071 8.67932 11.071 9.00001C11.071 9.32071 11.3309 9.58065 11.6516 9.58065H17.4194C17.7401 9.58065 18 9.32071 18 9.00001C18 8.67932 17.7401 8.41937 17.4194 8.41937Z" fill="black"/>
<path d="M6.34838 8.41937H0.580641C0.259945 8.41937 0 8.67932 0 9.00001C0 9.32071 0.259945 9.58065 0.580641 9.58065H6.34838C6.66907 9.58065 6.92902 9.32071 6.92902 9.00001C6.92902 8.67932 6.66911 8.41937 6.34838 8.41937Z" fill="black"/>
</g>
<defs>
<clipPath id="clip0_8_859">
<rect width="18" height="18" fill="white"/>
</clipPath>
</defs>
</svg>
