<svg width="34" height="27" viewBox="0 0 34 27" fill="none" xmlns="http://www.w3.org/2000/svg">
<path d="M10.4481 26.9998C22.9854 26.9998 29.8415 16.613 29.8415 7.6064C29.8415 7.3114 29.8354 7.01762 29.8222 6.72547C31.1529 5.76326 32.3096 4.56254 33.2222 3.19583C32.001 3.7389 30.6865 4.10399 29.308 4.26917C30.7151 3.425 31.7956 2.09019 32.3051 0.49898C30.9882 1.27975 29.5296 1.847 27.977 2.15338C26.7332 0.828519 24.9622 0 23.0014 0C19.2376 0 16.185 3.05239 16.185 6.81506C16.185 7.35021 16.2449 7.87032 16.3617 8.3693C10.6968 8.08425 5.67326 5.37217 2.31185 1.24786C1.72672 2.25496 1.38906 3.42521 1.38906 4.67388C1.38906 7.03835 2.59242 9.1263 4.42215 10.3473C3.30392 10.313 2.25354 10.006 1.33522 9.49505C1.3342 9.5237 1.3342 9.55153 1.3342 9.58201C1.3342 12.8831 3.68364 15.6393 6.80287 16.2638C6.22994 16.4196 5.62714 16.5035 5.00545 16.5035C4.56701 16.5035 4.13955 16.4605 3.72427 16.3806C4.592 19.0888 7.10844 21.0596 10.0918 21.1148C7.75878 22.9433 4.81995 24.0325 1.62595 24.0325C1.07659 24.0325 0.533519 24.001 0 23.9381C3.01664 25.8716 6.59869 27 10.4483 27" fill="#65676B"/>
</svg>
