<svg width="18" height="14" viewBox="0 0 18 14" fill="none" xmlns="http://www.w3.org/2000/svg">
<path d="M16.9318 0.564708C16.8121 0.463123 16.6437 0.423003 16.438 0.446751C16.4196 0.448871 16.3976 0.451415 16.3792 0.453536C15.3414 0.621729 14.3077 0.793171 13.2699 0.961364C13.1311 0.984826 12.941 1.01423 12.8077 1.18223C12.7655 1.2355 12.7351 1.29485 12.7134 1.36437C12.5977 1.71648 12.8394 1.90821 12.9542 1.9992L13.2455 2.23359C13.4467 2.39649 13.6516 2.55897 13.8561 2.71778L8.28021 9.75316L5.12086 7.24772C4.93237 7.09824 4.69358 7.02902 4.45111 7.05701C4.20865 7.085 3.99559 7.20638 3.84611 7.39487L0.508354 11.5996C0.196394 11.993 0.262125 12.5624 0.655506 12.8743L0.844002 13.0238C1.0325 13.1733 1.27129 13.2425 1.51375 13.2145C1.75621 13.1865 1.96928 13.0652 2.11876 12.8767L4.74118 9.56979L7.90052 12.0752C8.08902 12.2247 8.32781 12.2939 8.57027 12.2659C8.81273 12.238 9.0258 12.1166 9.17896 11.9277L15.4702 3.99445L16.3671 4.70243C16.4737 4.78692 16.6212 4.90391 16.8232 4.88059C16.9077 4.87083 16.9897 4.83904 17.0723 4.7811C17.1273 4.74125 17.1745 4.69858 17.2135 4.64941C17.3532 4.4732 17.3593 4.26776 17.3484 4.10894C17.2998 3.4296 17.2548 2.74983 17.2094 2.06638L17.1397 1.04327C17.1261 0.828921 17.0593 0.669119 16.9318 0.564708Z" fill="black"/>
</svg>
